<?xml version="1.0" encoding="UTF-8"?> <svg xmlns="http://www.w3.org/2000/svg" width="81" height="80" viewBox="0 0 81 80" fill="none"><path d="M1.60901 79.3538V0.633544H0.333496V79.3538H1.60901ZM79.6957 78.716H0.971251V79.9915H79.6957V78.716ZM79.058 0.633544V79.3538H80.3335V0.633544H79.058ZM0.971251 1.2713H79.6957V-0.00421143H0.971251V1.2713ZM0.971251 79.3538H0.333496C0.333496 79.7067 0.61836 79.9915 0.971251 79.9915V79.3538ZM79.6957 79.3538V79.9915C80.0486 79.9915 80.3335 79.7067 80.3335 79.3538H79.6957ZM79.6957 0.633544H80.3335C80.3335 0.280652 80.0486 -0.00421143 79.6957 -0.00421143V0.633544ZM0.971251 0.633544V-0.00421143C0.61836 -0.00421143 0.333496 0.280652 0.333496 0.633544H0.971251Z" fill="#C7D6C1"></path><path d="M1.60901 23.6735V0.633544H0.333496V23.6735H1.60901ZM10.2102 32.2747C5.46104 32.2747 1.60901 28.4227 1.60901 23.6735H0.333496C0.333496 29.1242 4.75951 33.5502 10.2102 33.5502V32.2747ZM70.4568 32.2747H10.2102V33.5502H70.4568V32.2747ZM79.058 23.6735C79.058 28.4227 75.206 32.2747 70.4568 32.2747V33.5502C75.9075 33.5502 80.3335 29.1242 80.3335 23.6735H79.058ZM79.058 0.633544V23.6735H80.3335V0.633544H79.058ZM0.971251 1.2713H79.6957V-0.00421143H0.971251V1.2713ZM79.6957 0.633544H80.3335C80.3335 0.280652 80.0486 -0.00421143 79.6957 -0.00421143V0.633544ZM0.971251 0.633544V-0.00421143C0.61836 -0.00421143 0.333496 0.280652 0.333496 0.633544H0.971251Z" fill="#C7D6C1"></path><path d="M65.5926 24.1794H19.5127V32.9081H65.5926V24.1794Z" fill="#C7D6C1"></path><path d="M20.1505 32.904V24.1752H18.875V32.904H20.1505ZM65.5927 32.2662H19.5128V33.5418H65.5927V32.2662ZM64.9549 24.1752V32.904H66.2304V24.1752H64.9549ZM19.5128 24.813H65.5927V23.5375H19.5128V24.813ZM19.5128 32.904H18.875C18.875 33.2569 19.1599 33.5418 19.5128 33.5418V32.904ZM65.5927 32.904V33.5418C65.9456 33.5418 66.2304 33.2569 66.2304 32.904H65.5927ZM65.5927 24.1752H66.2304C66.2304 23.8224 65.9456 23.5375 65.5927 23.5375V24.1752ZM19.5128 24.1752V23.5375C19.1599 23.5375 18.875 23.8224 18.875 24.1752H19.5128Z" fill="#C7D6C1"></path><path d="M33.2374 19.9108H51.7833V18.6353H33.2374V19.9108ZM51.7833 19.9108C52.1362 19.9108 52.421 19.6259 52.421 19.273C52.421 18.9201 52.1362 18.6353 51.7833 18.6353V19.9108ZM33.2374 18.6353C32.8845 18.6353 32.5996 18.9201 32.5996 19.273C32.5996 19.6259 32.8845 19.9108 33.2374 19.9108V18.6353Z" fill="#C7D6C1"></path><path d="M10.2398 8.89882C11.0349 8.89882 11.6811 9.54507 11.6811 10.3401H12.9566C12.9566 8.83929 11.7406 7.62331 10.2398 7.62331V8.89882ZM8.79846 10.3401C8.79846 9.54507 9.44472 8.89882 10.2398 8.89882V7.62331C8.73894 7.62331 7.52295 8.83929 7.52295 10.3401H8.79846ZM10.2398 11.7815C9.44472 11.7815 8.79846 11.1352 8.79846 10.3401H7.52295C7.52295 11.841 8.73894 13.057 10.2398 13.057V11.7815ZM11.6811 10.3401C11.6811 11.1352 11.0349 11.7815 10.2398 11.7815V13.057C11.7406 13.057 12.9566 11.841 12.9566 10.3401H11.6811Z" fill="#C7D6C1"></path><path d="M10.2398 14.5408C11.0349 14.5408 11.6811 15.1871 11.6811 15.9821H12.9566C12.9566 14.4813 11.7406 13.2653 10.2398 13.2653V14.5408ZM8.79846 15.9821C8.79846 15.1871 9.44472 14.5408 10.2398 14.5408V13.2653C8.73894 13.2653 7.52295 14.4813 7.52295 15.9821H8.79846ZM10.2398 17.4235C9.44472 17.4235 8.79846 16.7772 8.79846 15.9821H7.52295C7.52295 17.483 8.73894 18.699 10.2398 18.699V17.4235ZM11.6811 15.9821C11.6811 16.7772 11.0349 17.4235 10.2398 17.4235V18.699C11.7406 18.699 12.9566 17.483 12.9566 15.9821H11.6811Z" fill="#C7D6C1"></path><path d="M10.2398 20.1828C11.0349 20.1828 11.6811 20.8291 11.6811 21.6242H12.9566C12.9566 20.1233 11.7406 18.9073 10.2398 18.9073V20.1828ZM8.79846 21.6242C8.79846 20.8291 9.44472 20.1828 10.2398 20.1828V18.9073C8.73894 18.9073 7.52295 20.1233 7.52295 21.6242H8.79846ZM10.2398 23.0655C9.44472 23.0655 8.79846 22.4192 8.79846 21.6242H7.52295C7.52295 23.125 8.73894 24.341 10.2398 24.341V23.0655ZM11.6811 21.6242C11.6811 22.4192 11.0349 23.0655 10.2398 23.0655V24.341C11.7406 24.341 12.9566 23.125 12.9566 21.6242H11.6811Z" fill="#C7D6C1"></path><path d="M13.8201 47.5341C13.8328 47.7552 13.735 48.006 13.5097 48.2951C13.2844 48.58 12.9783 48.8394 12.6849 49.0562L13.4374 50.0851C13.7733 49.8428 14.1857 49.5026 14.5131 49.0817C14.8405 48.665 15.1296 48.1123 15.0913 47.4661L13.8158 47.5341H13.8201ZM12.4255 45.0256C12.4425 45.8504 12.9697 46.3734 13.2844 46.7007C13.65 47.0834 13.8031 47.2705 13.8201 47.5383L15.0913 47.4661C15.0446 46.654 14.5131 46.1395 14.2027 45.8207C13.8413 45.4465 13.7053 45.2637 13.6968 45.0001L12.4213 45.0256H12.4255ZM13.8201 42.4618C13.8116 42.7594 13.6585 42.9465 13.2886 43.3122C12.9655 43.6353 12.4128 44.1583 12.4213 45.0213L13.6968 45.0043C13.6968 44.7492 13.8201 44.5877 14.19 44.2135C14.5174 43.8861 15.0658 43.3632 15.0913 42.4958L13.8158 42.4618H13.8201ZM12.4255 39.813C12.502 40.6591 13.008 41.1991 13.3269 41.5647C13.6798 41.9686 13.8243 42.1727 13.8158 42.4618L15.0913 42.4873C15.1083 41.6412 14.6067 41.0885 14.2835 40.7229C13.9264 40.3147 13.7266 40.0681 13.6926 39.6982L12.4213 39.813H12.4255ZM14.0327 36.7518C13.076 37.6021 12.3192 38.6395 12.4255 39.813L13.6968 39.6982C13.65 39.1667 13.9901 38.4992 14.883 37.7042L14.0327 36.7518ZM12.6849 49.052C12.4 49.2603 12.3362 49.6599 12.5446 49.9448C12.7529 50.2297 13.1525 50.2934 13.4374 50.0851L12.6849 49.0562V49.052ZM14.8787 37.7084C15.1423 37.4746 15.1636 37.0707 14.9298 36.8071C14.6959 36.5435 14.292 36.5222 14.0284 36.756L14.8787 37.7084Z" fill="#C7D6C1"></path><path d="M19.9592 47.5341C19.972 47.7552 19.8742 48.006 19.6489 48.2951C19.4235 48.58 19.1174 48.8394 18.824 49.0562L19.5766 50.0851C19.9125 49.8428 20.3249 49.5026 20.6523 49.0817C20.9796 48.665 21.2688 48.1123 21.2305 47.4661L19.955 47.5341H19.9592ZM18.5647 45.0256C18.5817 45.8504 19.1089 46.3734 19.4235 46.7007C19.7892 47.0834 19.9422 47.2705 19.9592 47.5383L21.2305 47.4661C21.1837 46.654 20.6523 46.1395 20.3419 45.8207C19.9805 45.4465 19.8444 45.2637 19.8359 45.0001L18.5604 45.0256H18.5647ZM19.9592 42.4618C19.9507 42.7594 19.7977 42.9465 19.4278 43.3122C19.1046 43.6353 18.5519 44.1583 18.5604 45.0213L19.8359 45.0043C19.8359 44.7492 19.9592 44.5877 20.3291 44.2135C20.6565 43.8861 21.205 43.3632 21.2305 42.4958L19.955 42.4618H19.9592ZM18.5647 39.813C18.6412 40.6591 19.1471 41.1991 19.466 41.5647C19.8189 41.9686 19.9635 42.1727 19.955 42.4618L21.2305 42.4873C21.2475 41.6412 20.7458 41.0885 20.4227 40.7229C20.0655 40.3147 19.8657 40.0681 19.8317 39.6982L18.5604 39.813H18.5647ZM20.1718 36.7518C19.2152 37.6021 18.4584 38.6395 18.5647 39.813L19.8359 39.6982C19.7892 39.1667 20.1293 38.4992 21.0222 37.7042L20.1718 36.7518ZM18.824 49.052C18.5391 49.2603 18.4754 49.6599 18.6837 49.9448C18.8921 50.2297 19.2917 50.2934 19.5766 50.0851L18.824 49.0562V49.052ZM21.0179 37.7084C21.2815 37.4746 21.3028 37.0707 21.0689 36.8071C20.8351 36.5435 20.4312 36.5222 20.1676 36.756L21.0179 37.7084Z" fill="#C7D6C1"></path><path d="M26.0989 47.5341C26.1116 47.7552 26.0139 48.006 25.7885 48.2951C25.5632 48.58 25.2571 48.8394 24.9637 49.0562L25.7162 50.0851C26.0521 49.8428 26.4645 49.5026 26.7919 49.0817C27.1193 48.665 27.4084 48.1123 27.3701 47.4661L26.0946 47.5341H26.0989ZM24.7043 45.0256C24.7213 45.8504 25.2485 46.3734 25.5632 46.7007C25.9288 47.0834 26.0819 47.2705 26.0989 47.5383L27.3701 47.4661C27.3234 46.654 26.7919 46.1395 26.4815 45.8207C26.1202 45.4465 25.9841 45.2637 25.9756 45.0001L24.7001 45.0256H24.7043ZM26.0989 42.4618C26.0904 42.7594 25.9373 42.9465 25.5674 43.3122C25.2443 43.6353 24.6916 44.1583 24.7001 45.0213L25.9756 45.0043C25.9756 44.7492 26.0989 44.5877 26.4688 44.2135C26.7962 43.8861 27.3446 43.3632 27.3701 42.4958L26.0946 42.4618H26.0989ZM24.7043 39.813C24.7808 40.6591 25.2868 41.1991 25.6057 41.5647C25.9586 41.9686 26.1031 42.1727 26.0946 42.4618L27.3701 42.4873C27.3871 41.6412 26.8854 41.0885 26.5623 40.7229C26.2052 40.3147 26.0054 40.0681 25.9714 39.6982L24.7001 39.813H24.7043ZM26.3115 36.7518C25.3548 37.6021 24.598 38.6395 24.7043 39.813L25.9756 39.6982C25.9289 39.1667 26.269 38.4992 27.1618 37.7042L26.3115 36.7518ZM24.9637 49.052C24.6788 49.2603 24.615 49.6599 24.8234 49.9448C25.0317 50.2297 25.4314 50.2934 25.7162 50.0851L24.9637 49.0562V49.052ZM27.1576 37.7084C27.4212 37.4746 27.4424 37.0707 27.2086 36.8071C26.9747 36.5435 26.5708 36.5222 26.3072 36.756L27.1576 37.7084Z" fill="#C7D6C1"></path><path d="M56.4431 47.5341C56.4559 47.7552 56.3581 48.006 56.1328 48.2951C55.9074 48.58 55.6013 48.8394 55.308 49.0562L56.0605 50.0851C56.3963 49.8428 56.8088 49.5026 57.1362 49.0817C57.4635 48.665 57.7526 48.1123 57.7144 47.4661L56.4389 47.5341H56.4431ZM55.0486 45.0256C55.0656 45.8504 55.5928 46.3734 55.9074 46.7007C56.2731 47.0834 56.4261 47.2705 56.4431 47.5383L57.7186 47.4661C57.6719 46.654 57.1404 46.1395 56.83 45.8207C56.4686 45.4465 56.3326 45.2637 56.3241 45.0001L55.0486 45.0256ZM56.4431 42.4618C56.4346 42.7594 56.2816 42.9465 55.9117 43.3122C55.5885 43.6353 55.0358 44.1583 55.0443 45.0213L56.3199 45.0043C56.3199 44.7492 56.4431 44.5877 56.813 44.2135C57.1404 43.8861 57.6889 43.3632 57.7144 42.4958L56.4389 42.4618H56.4431ZM55.0486 39.813C55.1251 40.6591 55.6311 41.1991 55.95 41.5647C56.3029 41.9686 56.4474 42.1727 56.4389 42.4618L57.7144 42.4873C57.7314 41.6412 57.2297 41.0885 56.9066 40.7229C56.5495 40.3147 56.3496 40.0681 56.3156 39.6982L55.0443 39.813H55.0486ZM56.6557 36.7518C55.6991 37.6021 54.9423 38.6395 55.0486 39.813L56.3199 39.6982C56.2731 39.1667 56.6132 38.4992 57.506 37.7042L56.6557 36.7518ZM55.308 49.052C55.0231 49.2603 54.9593 49.6599 55.1676 49.9448C55.3759 50.2297 55.7756 50.2934 56.0605 50.0851L55.308 49.0562V49.052ZM57.5018 37.7084C57.7654 37.4746 57.7867 37.0707 57.5528 36.8071C57.319 36.5435 56.9151 36.5222 56.6515 36.756L57.5018 37.7084Z" fill="#C7D6C1"></path><path d="M62.5784 47.5341C62.5911 47.7552 62.4934 48.006 62.268 48.2951C62.0427 48.58 61.7365 48.8394 61.4432 49.0562L62.1957 50.0851C62.5316 49.8428 62.944 49.5026 63.2714 49.0817C63.5988 48.665 63.8879 48.1123 63.8496 47.4661L62.5741 47.5341H62.5784ZM61.1838 45.0256C61.2008 45.8504 61.728 46.3734 62.0427 46.7007C62.4083 47.0834 62.5614 47.2705 62.5784 47.5383L63.8496 47.4661C63.8029 46.654 63.2714 46.1395 62.961 45.8207C62.5996 45.4465 62.4636 45.2637 62.4551 45.0001L61.1796 45.0256H61.1838ZM62.5784 42.4618C62.5699 42.7594 62.4168 42.9465 62.0469 43.3122C61.7238 43.6353 61.171 44.1583 61.1796 45.0213L62.4551 45.0043C62.4551 44.7492 62.5784 44.5877 62.9483 44.2135C63.2757 43.8861 63.8241 43.3632 63.8496 42.4958L62.5741 42.4618H62.5784ZM61.1838 39.813C61.2603 40.6591 61.7663 41.1991 62.0852 41.5647C62.4381 41.9686 62.5826 42.1727 62.5741 42.4618L63.8496 42.4873C63.8666 41.6412 63.3649 41.0885 63.0418 40.7229C62.6847 40.3147 62.4848 40.0681 62.4508 39.6982L61.1796 39.813H61.1838ZM62.791 36.7518C61.8343 37.6021 61.0775 38.6395 61.1838 39.813L62.4551 39.6982C62.4083 39.1667 62.7484 38.4992 63.6413 37.7042L62.791 36.7518ZM61.4432 49.052C61.1583 49.2603 61.0945 49.6599 61.3029 49.9448C61.5112 50.2297 61.9108 50.2934 62.1957 50.0851L61.4432 49.0562V49.052ZM63.637 37.7084C63.9007 37.4746 63.9219 37.0707 63.6881 36.8071C63.4542 36.5435 63.0503 36.5222 62.7867 36.756L63.637 37.7084Z" fill="#C7D6C1"></path><path d="M68.718 47.5341C68.7307 47.7552 68.6329 48.006 68.4076 48.2951C68.1823 48.58 67.8762 48.8394 67.5828 49.0562L68.3353 50.0851C68.6712 49.8428 69.0836 49.5026 69.411 49.0817C69.7384 48.665 70.0275 48.1123 69.9892 47.4661L68.7137 47.5341H68.718ZM67.3235 45.0256C67.3405 45.8504 67.8676 46.3734 68.1823 46.7007C68.5479 47.0834 68.701 47.2705 68.718 47.5383L69.9935 47.4661C69.9467 46.654 69.4153 46.1395 69.1049 45.8207C68.7435 45.4465 68.6075 45.2637 68.599 45.0001L67.3235 45.0256ZM68.718 42.4618C68.7095 42.7594 68.5564 42.9465 68.1865 43.3122C67.8634 43.6353 67.3107 44.1583 67.3192 45.0213L68.5947 45.0043C68.5947 44.7492 68.718 44.5877 69.0879 44.2135C69.4153 43.8861 69.9637 43.3632 69.9892 42.4958L68.7137 42.4618H68.718ZM67.3235 39.813C67.4 40.6591 67.9059 41.1991 68.2248 41.5647C68.5777 41.9686 68.7222 42.1727 68.7137 42.4618L69.9892 42.4873C70.0062 41.6412 69.5046 41.0885 69.1814 40.7229C68.8243 40.3147 68.6245 40.0681 68.5905 39.6982L67.3192 39.813H67.3235ZM68.9306 36.7518C67.9739 37.6021 67.2172 38.6395 67.3235 39.813L68.5947 39.6982C68.5479 39.1667 68.888 38.4992 69.7809 37.7042L68.9306 36.7518ZM67.5828 49.052C67.2979 49.2603 67.2341 49.6599 67.4425 49.9448C67.6508 50.2297 68.0504 50.2934 68.3353 50.0851L67.5828 49.0562V49.052ZM69.7766 37.7084C70.0402 37.4746 70.0615 37.0707 69.8277 36.8071C69.5938 36.5435 69.1899 36.5222 68.9263 36.756L69.7766 37.7084Z" fill="#C7D6C1"></path></svg> 