<?xml version="1.0" encoding="UTF-8"?> <svg xmlns="http://www.w3.org/2000/svg" width="80" height="80" viewBox="0 0 80 80" fill="none"><path d="M1.27551 79.3538V0.633605H0V79.3538H1.27551ZM79.3623 78.7161H0.637755V79.9916H79.3623V78.7161ZM78.7245 0.633605V79.3538H80V0.633605H78.7245ZM0.637755 1.27136H79.3623V-0.00415039H0.637755V1.27136ZM0.637755 79.3538H0C0 79.7067 0.284864 79.9916 0.637755 79.9916V79.3538ZM79.3623 79.3538V79.9916C79.7151 79.9916 80 79.7067 80 79.3538H79.3623ZM79.3623 0.633605H80C80 0.280713 79.7151 -0.00415039 79.3623 -0.00415039V0.633605ZM0.637755 0.633605V-0.00415039C0.284864 -0.00415039 0 0.280713 0 0.633605H0.637755Z" fill="#C7D6C1"></path><path d="M70.5794 59.7416H70.2049V31.1785C70.205 30.6308 69.991 30.1048 69.6084 29.7129C69.2258 29.3209 68.7051 29.0942 68.1575 29.0812H41.3047C41.1453 29.0824 40.9883 29.0429 40.8485 28.9664C40.7087 28.8899 40.5907 28.7791 40.5057 28.6443L38.1962 24.9615C38.0064 24.667 37.7459 24.4247 37.4384 24.2568C37.1309 24.0889 36.7863 24.0007 36.436 24.0002H11.8801C11.3272 24.0002 10.7969 24.2199 10.4059 24.6109C10.015 25.0018 9.79532 25.5321 9.79532 26.0851V59.7042H9.40832C8.45988 59.845 7.59372 60.3223 6.96802 61.0488C6.34232 61.7754 5.99881 62.7027 6.00022 63.6616V75.8084C5.99015 76.7722 6.33 77.707 6.95672 78.4394C7.58344 79.1717 8.4545 79.6518 9.40832 79.7908H70.5794C71.5291 79.6555 72.398 79.1819 73.0264 78.4571C73.6549 77.7324 74.0006 76.8051 74 75.8459V63.699C74.001 62.7383 73.6557 61.8095 73.0275 61.0826C72.3992 60.3558 71.5301 59.8797 70.5794 59.7416ZM72.864 75.8459C72.863 76.5037 72.6352 77.141 72.2191 77.6504C71.8029 78.1598 71.2238 78.5101 70.5794 78.6423V60.9026C71.2238 61.0348 71.8029 61.3851 72.2191 61.8945C72.6352 62.4039 72.863 63.0412 72.864 63.699V75.8459ZM69.4059 78.6922H10.5568V60.8402H69.4059V78.6922ZM7.0988 63.7115C7.09682 63.0549 7.32195 62.4177 7.73604 61.9081C8.15013 61.3984 8.7277 61.0476 9.37087 60.9151V78.6423C8.7277 78.5098 8.15013 78.159 7.73604 77.6493C7.32195 77.1397 7.09682 76.5025 7.0988 75.8459V63.7115ZM10.844 54.5483V32.9262C10.8423 32.8012 10.8657 32.677 10.9128 32.5612C10.9599 32.4453 11.0297 32.34 11.1181 32.2516C11.2066 32.1632 11.3118 32.0933 11.4277 32.0463C11.5436 31.9992 11.6677 31.9758 11.7927 31.9775H36.3985C36.5579 31.9763 36.7149 32.0158 36.8547 32.0922C36.9945 32.1687 37.1125 32.2796 37.1975 32.4144L39.5444 36.0971C39.7342 36.3916 39.9947 36.6339 40.3022 36.8018C40.6097 36.9697 40.9543 37.0579 41.3047 37.0584H68.1575C68.4092 37.0584 68.6505 37.1584 68.8284 37.3363C69.0063 37.5142 69.1063 37.7555 69.1063 38.0072V59.7042H10.9314L10.844 54.5483Z" fill="#C6D5BF"></path><path d="M52.3404 65.5591C51.6991 65.5598 51.0674 65.7143 50.4982 66.0097C49.9291 66.3052 49.4392 66.7329 49.0696 67.2569H30.918C30.4396 66.5821 29.7636 66.0724 28.9832 65.7982C28.2028 65.524 27.3565 65.4988 26.5612 65.726C25.7659 65.9533 25.0607 66.4219 24.5431 67.0671C24.0254 67.7122 23.7208 68.5022 23.6712 69.3279C23.6217 70.1536 23.8297 70.9743 24.2665 71.6767C24.7033 72.3791 25.3474 72.9286 26.1098 73.2494C26.8723 73.5702 27.7155 73.6463 28.5231 73.4674C29.3307 73.2885 30.0628 72.8633 30.6184 72.2505H49.4316C49.8817 72.7354 50.4455 73.1006 51.0721 73.313C51.6987 73.5254 52.3683 73.5784 53.0205 73.4671C53.6727 73.3558 54.2869 73.0837 54.8076 72.6755C55.3283 72.2673 55.7391 71.7358 56.0028 71.1291C56.2666 70.5223 56.375 69.8594 56.3183 69.2002C56.2616 68.541 56.0416 67.9063 55.6781 67.3535C55.3146 66.8007 54.8191 66.3471 54.2363 66.0339C53.6536 65.7206 53.002 65.5574 52.3404 65.5591ZM31.3425 71.1019H27.8345C27.5041 71.0699 27.1975 70.916 26.9744 70.6702C26.7513 70.4244 26.6277 70.1044 26.6277 69.7724C26.6277 69.4405 26.7513 69.1204 26.9744 68.8746C27.1975 68.6288 27.5041 68.4749 27.8345 68.4429H52.5276C52.713 68.4249 52.9002 68.4459 53.077 68.5045C53.2538 68.5631 53.4164 68.6581 53.5544 68.7833C53.6923 68.9085 53.8026 69.0612 53.878 69.2315C53.9534 69.4019 53.9924 69.5861 53.9924 69.7724C53.9924 69.9587 53.9534 70.1429 53.878 70.3133C53.8026 70.4836 53.6923 70.6363 53.5544 70.7615C53.4164 70.8867 53.2538 70.9817 53.077 71.0403C52.9002 71.0989 52.713 71.1199 52.5276 71.1019H31.305H31.3425Z" fill="#C6D5BF"></path></svg> 