<?xml version="1.0" encoding="UTF-8"?> <svg xmlns="http://www.w3.org/2000/svg" width="81" height="80" viewBox="0 0 81 80" fill="none"><path d="M1.60901 79.358V0.637755H0.333496V79.358H1.60901ZM79.6957 78.7203H0.971251V79.9958H79.6957V78.7203ZM79.058 0.637755V79.358H80.3335V0.637755H79.058ZM0.971251 1.27551H79.6957V0H0.971251V1.27551ZM0.971251 79.358H0.333496C0.333496 79.7109 0.61836 79.9958 0.971251 79.9958V79.358ZM79.6957 79.358V79.9958C80.0486 79.9958 80.3335 79.7109 80.3335 79.358H79.6957ZM79.6957 0.637755H80.3335C80.3335 0.284864 80.0486 0 79.6957 0V0.637755ZM0.971251 0.637755V0C0.61836 0 0.333496 0.284864 0.333496 0.637755H0.971251Z" fill="#C7D6C1"></path><path d="M5.32925 61.9133H79.6957V60.6378H5.32925V61.9133ZM0.971251 61.9133H5.32925V60.6378H0.971251V61.9133ZM79.6957 61.9133C80.0486 61.9133 80.3335 61.6284 80.3335 61.2755C80.3335 60.9227 80.0486 60.6378 79.6957 60.6378V61.9133ZM0.971251 60.6378C0.61836 60.6378 0.333496 60.9227 0.333496 61.2755C0.333496 61.6284 0.61836 61.9133 0.971251 61.9133V60.6378Z" fill="#C7D6C1"></path><path d="M74.4362 56.875V60.8588H75.7117V56.875H74.4362ZM5.58844 57.5128H75.074V56.2372H5.58844V57.5128ZM6.22619 61.2755V56.875H4.95068V61.2755H6.22619ZM74.4362 60.8588C74.4362 61.2117 74.7211 61.4966 75.074 61.4966C75.4269 61.4966 75.7117 61.2117 75.7117 60.8588H74.4362ZM75.074 56.875H75.7117C75.7117 56.5221 75.4269 56.2372 75.074 56.2372V56.875ZM5.58844 56.875V56.2372C5.23555 56.2372 4.95068 56.5221 4.95068 56.875H5.58844ZM4.95068 61.2755C4.95068 61.6284 5.23555 61.9133 5.58844 61.9133C5.94133 61.9133 6.22619 61.6284 6.22619 61.2755H4.95068Z" fill="#C7D6C1"></path><path d="M31.2134 56.471V52.0237H49.4532V56.471" fill="#C7D6C1"></path><path d="M48.8156 52.0237V56.471H50.0911V52.0237H48.8156ZM31.2178 52.6615H49.4534V51.386H31.2178V52.6615ZM31.8556 56.471V52.0237H30.5801V56.471H31.8556ZM48.8156 56.471C48.8156 56.8239 49.1005 57.1088 49.4534 57.1088C49.8063 57.1088 50.0911 56.8239 50.0911 56.471H48.8156ZM49.4534 52.0237H50.0911C50.0911 51.6708 49.8063 51.386 49.4534 51.386V52.0237ZM31.2178 52.0237V51.386C30.8649 51.386 30.5801 51.6708 30.5801 52.0237H31.2178ZM30.5801 56.471C30.5801 56.8239 30.8649 57.1088 31.2178 57.1088C31.5707 57.1088 31.8556 56.8239 31.8556 56.471H30.5801Z" fill="#C7D6C1"></path><path d="M39.6914 19.5663V37.3469H40.9669V19.5663H39.6914ZM39.6914 37.3469C39.6914 37.6998 39.9763 37.9847 40.3292 37.9847C40.6821 37.9847 40.9669 37.6998 40.9669 37.3469H39.6914ZM40.9669 19.5663C40.9669 19.2134 40.6821 18.9286 40.3292 18.9286C39.9763 18.9286 39.6914 19.2134 39.6914 19.5663H40.9669Z" fill="#C7D6C1"></path><path d="M39.6914 41.9685V52.0195H40.9669V41.9685H39.6914ZM39.6914 52.0195C39.6914 52.3724 39.9763 52.6573 40.3292 52.6573C40.6821 52.6573 40.9669 52.3724 40.9669 52.0195H39.6914ZM40.9669 41.9685C40.9669 41.6156 40.6821 41.3307 40.3292 41.3307C39.9763 41.3307 39.6914 41.6156 39.6914 41.9685H40.9669Z" fill="#C7D6C1"></path><path d="M23.8453 37.9805H56.8257V36.7049H23.8453V37.9805ZM56.8257 37.9805C57.1786 37.9805 57.4635 37.6956 57.4635 37.3427C57.4635 36.9898 57.1786 36.7049 56.8257 36.7049V37.9805ZM23.8453 36.7049C23.4924 36.7049 23.2075 36.9898 23.2075 37.3427C23.2075 37.6956 23.4924 37.9805 23.8453 37.9805V36.7049Z" fill="#C7D6C1"></path><path d="M28.8116 42.6063H51.8473V41.3307H28.8116V42.6063ZM51.8473 42.6063C52.2002 42.6063 52.4851 42.3214 52.4851 41.9685C52.4851 41.6156 52.2002 41.3307 51.8473 41.3307V42.6063ZM28.8116 41.3307C28.4587 41.3307 28.1738 41.6156 28.1738 41.9685C28.1738 42.3214 28.4587 42.6063 28.8116 42.6063V41.3307Z" fill="#C7D6C1"></path><path d="M40.3294 11.0629L26.1372 18.9668H54.5216L40.3294 11.0629Z" fill="#C7D6C1"></path><path d="M54.8317 18.4098L40.6395 10.5059L40.0188 11.6199L54.2109 19.5238L54.8317 18.4098ZM26.137 19.6045H54.5213V18.329H26.137V19.6045ZM40.0188 10.5059L25.8266 18.4098L26.4473 19.5238L40.6395 11.6199L40.0188 10.5059ZM54.5213 18.9668V19.6045C54.8104 19.6045 55.0655 19.409 55.1378 19.1283C55.2101 18.8477 55.0825 18.5501 54.8317 18.4098L54.5213 18.9668ZM26.137 18.9668L25.8266 18.4098C25.5715 18.5501 25.4482 18.8477 25.5205 19.1283C25.5927 19.409 25.8478 19.6045 26.137 19.6045V18.9668ZM40.3291 11.0629L40.6395 10.5059C40.4482 10.3996 40.2101 10.3996 40.0188 10.5059L40.3291 11.0629Z" fill="#C7D6C1"></path><path d="M57.2042 46.5349L53.9432 56.2713L55.1507 56.6752L58.4117 46.9388L57.2042 46.5349ZM64.3258 46.1012H57.808V47.3767H64.3258V46.1012ZM67.2978 36.2543L63.7263 46.5306L64.9296 46.9515L68.501 36.6752L67.2978 36.2543ZM53.9389 56.2713C53.8284 56.6071 54.007 56.9686 54.3429 57.0791C54.6787 57.1896 55.0401 57.0111 55.1507 56.6752L53.9432 56.2713H53.9389ZM57.808 46.739V46.1012C57.5359 46.1012 57.2893 46.2755 57.2042 46.5349L57.808 46.739ZM64.3258 46.739V47.3767C64.5979 47.3767 64.8403 47.2066 64.9296 46.9473L64.3258 46.739ZM68.501 36.6709C68.6158 36.3393 68.4415 35.9737 68.1098 35.8589C67.7782 35.7441 67.4126 35.9184 67.2978 36.25L68.501 36.6709Z" fill="#C7D6C1"></path><path d="M63.7517 47.0153L68.4499 56.7517L69.5978 56.199L64.8997 46.4626L63.7517 47.0153ZM68.4499 56.7517C68.6029 57.0706 68.9856 57.2024 69.3002 57.0493C69.6191 56.8963 69.7509 56.5136 69.5978 56.199L68.4499 56.7517ZM64.8997 46.4626C64.7466 46.1437 64.364 46.0119 64.0493 46.165C63.7305 46.318 63.5986 46.7007 63.7517 47.0153L64.8997 46.4626Z" fill="#C7D6C1"></path><path d="M22.2469 46.6709L25.5079 56.4073L26.7154 56.0034L23.4543 46.267L22.2469 46.6709ZM16.3327 47.1046H22.8506V45.829H16.3327V47.1046ZM12.1576 36.3988L15.729 46.6752L16.9322 46.2542L13.3608 35.9779L12.1576 36.3988ZM25.5079 56.403C25.6185 56.7389 25.9798 56.9175 26.3157 56.8069C26.6516 56.6964 26.8302 56.335 26.7196 55.9991L25.5122 56.403H25.5079ZM22.8506 46.4668L23.4543 46.2627C23.3693 46.0034 23.1227 45.829 22.8506 45.829V46.4668ZM16.3327 46.4668L15.729 46.6752C15.8183 46.9303 16.0606 47.1046 16.3327 47.1046V46.4668ZM13.3608 35.9821C13.246 35.6505 12.8804 35.4719 12.5487 35.591C12.2171 35.7058 12.0385 36.0714 12.1576 36.403L13.3608 35.9821Z" fill="#C7D6C1"></path><path d="M15.7585 46.1904L11.0603 55.9268L12.2083 56.4796L16.9064 46.7431L15.7585 46.1904ZM11.0603 55.9268C10.9072 56.2457 11.0391 56.6241 11.3579 56.7771C11.6768 56.9302 12.0552 56.7984 12.2083 56.4796L11.0603 55.9268ZM16.9064 46.7474C17.0595 46.4285 16.9277 46.0501 16.6088 45.8971C16.2899 45.744 15.9115 45.8758 15.7585 46.1947L16.9064 46.7474Z" fill="#C7D6C1"></path></svg> 