<?xml version="1.0" encoding="UTF-8"?> <svg xmlns="http://www.w3.org/2000/svg" width="81" height="80" viewBox="0 0 81 80" fill="none"><path d="M1.94201 79.358V0.63777H0.666504V79.358H1.94201ZM80.0288 78.7202H1.30426V79.9958H80.0288V78.7202ZM79.391 0.63777V79.358H80.6665V0.63777H79.391ZM1.30426 1.27553H80.0288V1.52588e-05H1.30426V1.27553ZM1.30426 79.358H0.666504C0.666504 79.7109 0.951368 79.9958 1.30426 79.9958V79.358ZM80.0288 79.358V79.9958C80.3816 79.9958 80.6665 79.7109 80.6665 79.358H80.0288ZM80.0288 0.63777H80.6665C80.6665 0.284879 80.3816 1.52588e-05 80.0288 1.52588e-05V0.63777ZM1.30426 0.63777V1.52588e-05C0.951368 1.52588e-05 0.666504 0.284879 0.666504 0.63777H1.30426Z" fill="#C7D6C1"></path><path d="M61.6273 48.886C59.055 39.7236 50.6451 33.0144 40.6622 33.0144C30.6792 33.0144 22.2949 39.7108 19.7056 48.8477L61.6273 48.886Z" fill="#C7D6C1"></path><path d="M19.7054 49.4813L61.6271 49.5196V48.2441L19.7054 48.2058V49.4813ZM40.6619 32.3725C30.4026 32.3725 21.7546 39.2645 19.0888 48.6693L20.3176 49.0179C22.8303 40.1489 30.9893 33.648 40.6619 33.648V32.3725ZM62.2436 48.7118C59.5948 39.2815 50.9383 32.3725 40.6619 32.3725V33.648C50.3516 33.648 58.5148 40.1616 61.0148 49.0562L62.2436 48.7118ZM19.7054 48.8436L19.0931 48.6693C19.0378 48.8606 19.0761 49.0689 19.1994 49.2263C19.3184 49.3836 19.5098 49.4813 19.7096 49.4813V48.8436H19.7054ZM61.6271 48.8818V49.5196C61.8269 49.5196 62.014 49.4261 62.1373 49.2688C62.2563 49.1115 62.2988 48.9031 62.2436 48.7118L61.6314 48.8861L61.6271 48.8818Z" fill="#C7D6C1"></path><path d="M40.6709 54.324C38.0179 54.324 35.858 52.1683 35.858 49.511H34.5825C34.5825 52.8699 37.3078 55.5995 40.6709 55.5995V54.324ZM45.4839 49.511C45.4839 52.1641 43.3282 54.324 40.6709 54.324V55.5995C44.0298 55.5995 46.7594 52.8741 46.7594 49.511H45.4839ZM35.8623 49.511C35.8623 49.1581 35.5774 48.8733 35.2245 48.8733C34.8716 48.8733 34.5868 49.1581 34.5868 49.511H35.8623ZM46.7594 49.511C46.7594 49.1581 46.4745 48.8733 46.1216 48.8733C45.7687 48.8733 45.4839 49.1581 45.4839 49.511H46.7594Z" fill="#C7D6C1"></path><path d="M40.0327 0.637763V33.0102H41.3082V0.637763H40.0327ZM40.0327 33.0102C40.0327 33.3631 40.3176 33.648 40.6705 33.648C41.0234 33.648 41.3082 33.3631 41.3082 33.0102H40.0327ZM41.3082 0.637763C41.3082 0.284872 41.0234 7.62939e-06 40.6705 7.62939e-06C40.3176 7.62939e-06 40.0327 0.284872 40.0327 0.637763H41.3082Z" fill="#C7D6C1"></path></svg> 