<?xml version="1.0" encoding="UTF-8"?> <svg xmlns="http://www.w3.org/2000/svg" width="80" height="80" viewBox="0 0 80 80" fill="none"><path d="M1.27551 79.3538V0.633544H0V79.3538H1.27551ZM79.3623 78.716H0.637755V79.9915H79.3623V78.716ZM78.7245 0.633544V79.3538H80V0.633544H78.7245ZM0.637755 1.2713H79.3623V-0.00421143H0.637755V1.2713ZM0.637755 79.3538H0C0 79.7067 0.284864 79.9915 0.637755 79.9915V79.3538ZM79.3623 79.3538V79.9915C79.7151 79.9915 80 79.7067 80 79.3538H79.3623ZM79.3623 0.633544H80C80 0.280652 79.7151 -0.00421143 79.3623 -0.00421143V0.633544ZM0.637755 0.633544V-0.00421143C0.284864 -0.00421143 0 0.280652 0 0.633544H0.637755Z" fill="#C7D6C1"></path><path d="M33.4481 33.2398C33.4481 41.1224 27.062 47.5085 19.1793 47.5085C11.2967 47.5085 4.91064 41.1224 4.91064 33.2398H33.4481Z" fill="#C7D6C1"></path><path d="M33.4396 33.8776H33.4481V32.6021H33.4396V33.8776ZM4.9107 33.8776H33.4396V32.6021H4.9107V33.8776ZM19.1794 46.8708C11.6496 46.8708 5.54846 40.7696 5.54846 33.2398H4.27295C4.27295 41.4753 10.9439 48.1463 19.1794 48.1463V46.8708ZM32.8104 33.2398C32.8104 40.7696 26.7092 46.8708 19.1794 46.8708V48.1463C27.415 48.1463 34.0859 41.4753 34.0859 33.2398H32.8104ZM4.9107 33.2398V32.6021C4.55781 32.6021 4.27295 32.8869 4.27295 33.2398H4.9107ZM33.4481 33.2398H34.0859C34.0859 32.8869 33.801 32.6021 33.4481 32.6021V33.2398Z" fill="#C7D6C1"></path><path d="M14.7661 20.7611H14.7576V22.0366H14.7661V20.7611ZM14.2091 22.5936C14.2091 22.2875 14.46 22.0366 14.7661 22.0366V20.7611C13.7542 20.7611 12.9336 21.5817 12.9336 22.5936H14.2091ZM14.2091 33.2484V22.5936H12.9336V33.2484H14.2091ZM15.9523 32.6106H13.5713V33.8861H15.9523V32.6106ZM15.3146 22.5936V33.2484H16.5901V22.5936H15.3146ZM14.7576 22.0366C15.0637 22.0366 15.3146 22.2875 15.3146 22.5936H16.5901C16.5901 21.5817 15.7695 20.7611 14.7576 20.7611V22.0366ZM14.7661 22.0366C15.119 22.0366 15.4038 21.7518 15.4038 21.3989C15.4038 21.046 15.119 20.7611 14.7661 20.7611V22.0366ZM13.5713 33.2484H12.9336C12.9336 33.6013 13.2185 33.8861 13.5713 33.8861V33.2484ZM15.9523 33.2484V33.8861C16.3052 33.8861 16.5901 33.6013 16.5901 33.2484H15.9523ZM14.7576 20.7611C14.4047 20.7611 14.1198 21.046 14.1198 21.3989C14.1198 21.7518 14.4047 22.0366 14.7576 22.0366V20.7611Z" fill="#C7D6C1"></path><path d="M23.6094 20.7611H23.6009V22.0366H23.6094V20.7611ZM23.0524 22.5936C23.0524 22.2875 23.3032 22.0366 23.6094 22.0366V20.7611C22.5975 20.7611 21.7769 21.5817 21.7769 22.5936H23.0524ZM23.0524 33.2484V22.5936H21.7769V33.2484H23.0524ZM24.7956 32.6106H22.4146V33.8861H24.7956V32.6106ZM24.1578 22.5936V33.2484H25.4333V22.5936H24.1578ZM23.6009 22.0366C23.907 22.0366 24.1578 22.2875 24.1578 22.5936H25.4333C25.4333 21.5817 24.6128 20.7611 23.6009 20.7611V22.0366ZM23.6094 22.0366C23.9623 22.0366 24.2471 21.7518 24.2471 21.3989C24.2471 21.046 23.9623 20.7611 23.6094 20.7611V22.0366ZM22.4146 33.2484H21.7769C21.7769 33.6013 22.0617 33.8861 22.4146 33.8861V33.2484ZM24.7956 33.2484V33.8861C25.1485 33.8861 25.4333 33.6013 25.4333 33.2484H24.7956ZM23.6009 20.7611C23.248 20.7611 22.9631 21.046 22.9631 21.3989C22.9631 21.7518 23.248 22.0366 23.6009 22.0366V20.7611Z" fill="#C7D6C1"></path><path d="M44.5959 76.9515V79.3623H45.8714V76.9515H44.5959ZM42.0237 74.3793C43.4395 74.3793 44.5959 75.5272 44.5959 76.9515H45.8714C45.8714 74.8214 44.1453 73.1038 42.0237 73.1038V74.3793ZM38.1758 70.5315C38.1758 72.6488 39.8936 74.3793 42.0237 74.3793V73.1038C40.6036 73.1038 39.4514 71.9473 39.4514 70.5315H38.1758ZM38.1758 65.1446V70.5315H39.4514V65.1446H38.1758ZM35.6036 62.5723C37.0194 62.5723 38.1758 63.7202 38.1758 65.1446H39.4514C39.4514 63.0145 37.7252 61.2968 35.6036 61.2968V62.5723ZM22.3893 62.5723H35.6036V61.2968H22.3893V62.5723ZM18.5415 58.7245C18.5415 60.8419 20.2592 62.5723 22.3893 62.5723V61.2968C20.9692 61.2968 19.817 60.1403 19.817 58.7245H18.5415ZM18.5415 47.5V58.7245H19.817V47.5H18.5415ZM44.5917 79.3538C44.5917 79.7067 44.8765 79.9915 45.2294 79.9915C45.5823 79.9915 45.8672 79.7067 45.8672 79.3538H44.5917ZM19.817 47.5C19.817 47.1471 19.5321 46.8623 19.1793 46.8623C18.8264 46.8623 18.5415 47.1471 18.5415 47.5H19.817Z" fill="#C7D6C1"></path><path d="M52.0873 19.4006C59.8127 19.4006 66.0754 25.6633 66.0754 33.3887H67.351C67.351 24.9576 60.5185 18.1251 52.0873 18.1251V19.4006ZM38.0992 33.3887C38.0992 25.6633 44.362 19.4006 52.0873 19.4006V18.1251C43.6562 18.1251 36.8237 24.9576 36.8237 33.3887H38.0992ZM52.0873 47.3768C44.362 47.3768 38.0992 41.114 38.0992 33.3887H36.8237C36.8237 41.8198 43.6562 48.6523 52.0873 48.6523V47.3768ZM66.0754 33.3887C66.0754 41.114 59.8127 47.3768 52.0873 47.3768V48.6523C60.5185 48.6523 67.351 41.8198 67.351 33.3887H66.0754Z" fill="#C7D6C1"></path><path d="M47.7524 35.4743C48.9068 35.4299 49.8067 34.4581 49.7623 33.3036C49.718 32.1492 48.7462 31.2493 47.5918 31.2937C46.4373 31.338 45.5374 32.3098 45.5818 33.4642C45.6261 34.6187 46.5979 35.5186 47.7524 35.4743Z" fill="#C7D6C1"></path><path d="M47.67 31.9302C48.4736 31.9302 49.1241 32.5808 49.1241 33.3843H50.3996C50.3996 31.875 49.1751 30.6547 47.67 30.6547V31.9302ZM46.2159 33.3843C46.2159 32.5808 46.8664 31.9302 47.67 31.9302V30.6547C46.1607 30.6547 44.9404 31.8792 44.9404 33.3843H46.2159ZM47.67 34.8384C46.8664 34.8384 46.2159 34.1879 46.2159 33.3843H44.9404C44.9404 34.8937 46.1649 36.1139 47.67 36.1139V34.8384ZM49.1241 33.3843C49.1241 34.1879 48.4736 34.8384 47.67 34.8384V36.1139C49.1794 36.1139 50.3996 34.8894 50.3996 33.3843H49.1241Z" fill="#C7D6C1"></path><path d="M56.5049 35.4805C57.6614 35.4805 58.5968 34.5451 58.5968 33.3887C58.5968 32.2322 57.6614 31.2968 56.5049 31.2968C55.3485 31.2968 54.4131 32.2322 54.4131 33.3887C54.4131 34.5451 55.3485 35.4805 56.5049 35.4805Z" fill="#C7D6C1"></path><path d="M56.505 31.9302C57.3086 31.9302 57.9591 32.5808 57.9591 33.3843H59.2346C59.2346 31.875 58.0101 30.6547 56.505 30.6547V31.9302ZM55.0509 33.3843C55.0509 32.5808 55.7014 31.9302 56.505 31.9302V30.6547C54.9956 30.6547 53.7754 31.8792 53.7754 33.3843H55.0509ZM56.505 34.8384C55.7014 34.8384 55.0509 34.1879 55.0509 33.3843H53.7754C53.7754 34.8937 54.9999 36.1139 56.505 36.1139V34.8384ZM57.9591 33.3843C57.9591 34.1879 57.3086 34.8384 56.505 34.8384V36.1139C58.0144 36.1139 59.2346 34.8894 59.2346 33.3843H57.9591Z" fill="#C7D6C1"></path></svg> 