<?xml version="1.0" encoding="UTF-8"?> <svg xmlns="http://www.w3.org/2000/svg" width="80" height="80" viewBox="0 0 80 80" fill="none"><path d="M1.27551 79.3538V0.633529H0V79.3538H1.27551ZM79.3622 78.716H0.637755V79.9915H79.3622V78.716ZM78.7245 0.633529V79.3538H80V0.633529H78.7245ZM0.637755 1.27128H79.3622V-0.00422668H0.637755V1.27128ZM0.637755 79.3538H0V79.9915H0.637755V79.3538ZM79.3622 79.3538V79.9915H80V79.3538H79.3622ZM79.3622 0.633529H80V-0.00422668H79.3622V0.633529ZM0.637755 0.633529V-0.00422668H0V0.633529H0.637755Z" fill="#C7D6C1"></path><path d="M32.9589 35.574H47.0278C48.2608 35.574 49.2599 36.5731 49.2599 37.8061V60.2593C49.2599 60.4762 49.0814 60.6547 48.8645 60.6547H31.1137C30.8968 60.6547 30.7183 60.4762 30.7183 60.2593V37.8061C30.7183 36.5731 31.7174 35.574 32.9504 35.574H32.9589Z" fill="#C7D6C1"></path><path d="M32.9505 36.2117H32.959V34.9362H32.9505V36.2117ZM31.3561 37.8061C31.3561 36.926 32.0704 36.2117 32.9505 36.2117V34.9362C31.3646 34.9362 30.0806 36.2202 30.0806 37.8061H31.3561ZM31.3561 60.2593V37.8061H30.0806V60.2593H31.3561ZM31.1137 60.017C31.2498 60.017 31.3561 60.1233 31.3561 60.2593H30.0806C30.0806 60.8291 30.544 61.2925 31.1137 61.2925V60.017ZM48.8646 60.017H31.1137V61.2925H48.8646V60.017ZM48.6222 60.2593C48.6222 60.1233 48.7285 60.017 48.8646 60.017V61.2925C49.4343 61.2925 49.8977 60.8291 49.8977 60.2593H48.6222ZM48.6222 37.8061V60.2593H49.8977V37.8061H48.6222ZM47.0278 36.2117C47.9079 36.2117 48.6222 36.926 48.6222 37.8061H49.8977C49.8977 36.2202 48.6137 34.9362 47.0278 34.9362V36.2117ZM32.959 36.2117H47.0278V34.9362H32.959V36.2117Z" fill="#C7D6C1"></path><path d="M49.9025 60.6463V54.7236H48.627V60.6463H49.9025ZM54.5411 60.0085H49.2647V61.284H54.5411V60.0085ZM53.9033 56.25V60.6463H55.1788V56.25H53.9033ZM53.0147 55.3614C53.5079 55.3614 53.9033 55.7568 53.9033 56.25H55.1788C55.1788 55.051 54.2094 54.0859 53.0147 54.0859V55.3614ZM49.2647 55.3614H53.0147V54.0859H49.2647V55.3614ZM49.2647 60.6463H48.627V61.284H49.2647V60.6463ZM54.5411 60.6463V61.284H55.1788V60.6463H54.5411ZM49.2647 54.7236V54.0859H48.627V54.7236H49.2647Z" fill="#C7D6C1"></path><path d="M30.0976 54.6981V60.6207H31.3731V54.6981H30.0976ZM26.9854 55.3359H30.7354V54.0603H26.9854V55.3359ZM26.0968 56.2245C26.0968 55.7313 26.4922 55.3359 26.9854 55.3359V54.0603C25.7864 54.0603 24.8213 55.0297 24.8213 56.2245H26.0968ZM26.0968 60.6207V56.2245H24.8213V60.6207H26.0968ZM30.7354 59.983H25.459V61.2585H30.7354V59.983ZM30.7354 54.6981H31.3731V54.0603H30.7354V54.6981ZM25.459 60.6207H24.8213V61.2585H25.459V60.6207ZM30.7354 60.6207V61.2585H31.3731V60.6207H30.7354Z" fill="#C7D6C1"></path><path d="M40.6334 60.6208H39.3579V73.2611H40.6334V60.6208Z" fill="#C7D6C1"></path><path d="M45.4208 71.6879V73.2611H46.6963V71.6879H45.4208ZM44.4216 70.6888C44.9743 70.6888 45.4208 71.1395 45.4208 71.6879H46.6963C46.6963 70.4379 45.6844 69.4133 44.4216 69.4133V70.6888ZM35.5696 70.6888H44.4216V69.4133H35.5696V70.6888ZM34.5704 71.6879C34.5704 71.1352 35.0211 70.6888 35.5696 70.6888V69.4133C34.3196 69.4133 33.2949 70.4252 33.2949 71.6879H34.5704ZM34.5704 73.2611V71.6879H33.2949V73.2611H34.5704Z" fill="#C7D6C1"></path><path d="M30.727 49.0349H0.637695V50.3104H30.727V49.0349Z" fill="#C7D6C1"></path><path d="M79.3624 49.0349H49.2646V50.3104H79.3624V49.0349Z" fill="#C7D6C1"></path><path d="M32.1685 19.2772L47.8233 19.2942V18.0187L32.1685 18.0017V19.2772ZM39.9959 12.0876C35.9738 12.0876 32.5979 14.7874 31.5562 18.4651L32.785 18.8138C33.6778 15.6718 36.5648 13.3631 40.0001 13.3631V12.0876H39.9959ZM48.4398 18.4821C47.4023 14.7959 44.018 12.0876 39.9959 12.0876V13.3631C43.4313 13.3631 46.3224 15.676 47.211 18.8265L48.4398 18.4821ZM32.1685 18.6394L31.5562 18.4651L31.3267 19.2772H32.1685V18.6394ZM47.8233 18.6565V19.2942H48.6651L48.4355 18.4821L47.8233 18.6565Z" fill="#C7D6C1"></path><path d="M39.9956 20.2848C39.226 20.2848 38.5968 19.6556 38.5968 18.886H37.3213C37.3213 20.3614 38.5203 21.5603 39.9956 21.5603V20.2848ZM41.3944 18.886C41.3944 19.6556 40.7652 20.2848 39.9956 20.2848V21.5603C41.4709 21.5603 42.6699 20.3614 42.6699 18.886H41.3944Z" fill="#C7D6C1"></path><path d="M40.6334 0.633514H39.3579V12.7254H40.6334V0.633514Z" fill="#C7D6C1"></path></svg> 