<?xml version="1.0" encoding="UTF-8"?> <svg xmlns="http://www.w3.org/2000/svg" width="80" height="80" viewBox="0 0 80 80" fill="none"><path d="M1.27551 79.358V0.637755H0V79.358H1.27551ZM79.3622 78.7203H0.637755V79.9958H79.3622V78.7203ZM78.7245 0.637755V79.358H80V0.637755H78.7245ZM0.637755 1.27551H79.3622V0H0.637755V1.27551ZM0.637755 79.358H0C0 79.7109 0.284864 79.9958 0.637755 79.9958V79.358ZM79.3622 79.358V79.9958C79.7151 79.9958 80 79.7109 80 79.358H79.3622ZM79.3622 0.637755H80C80 0.284864 79.7151 0 79.3622 0V0.637755ZM0.637755 0.637755V0C0.284864 0 0 0.284864 0 0.637755H0.637755Z" fill="#C7D6C1"></path><path d="M40.0706 72.0185C43.5761 71.9714 46.3796 69.0915 46.3325 65.586C46.2854 62.0805 43.4054 59.277 39.9 59.3241C36.3945 59.3712 33.5909 62.2512 33.638 65.7566C33.6852 69.2621 36.5651 72.0656 40.0706 72.0185Z" fill="#C7D6C1"></path><path d="M40.0041 59.9447C43.1589 59.9447 45.7142 62.5 45.7142 65.6547H46.9897C46.9897 61.7985 43.8604 58.6692 40.0041 58.6692V59.9447ZM34.2941 65.6547C34.2941 62.5 36.8494 59.9447 40.0041 59.9447V58.6692C36.1478 58.6692 33.0186 61.7985 33.0186 65.6547H34.2941ZM40.0041 71.3648C36.8494 71.3648 34.2941 68.8095 34.2941 65.6547H33.0186C33.0186 69.511 36.1478 72.6403 40.0041 72.6403V71.3648ZM45.7142 65.6547C45.7142 68.8095 43.1589 71.3648 40.0041 71.3648V72.6403C43.8604 72.6403 46.9897 69.511 46.9897 65.6547H45.7142Z" fill="#C7D6C1"></path><path d="M40.0041 48.3673C47.2107 48.3673 53.6053 51.8367 57.6061 57.2024L58.6265 56.4413C54.3961 50.7695 47.6274 47.0918 39.9998 47.0918V48.3673H40.0041ZM22.4148 57.1726C26.4241 51.824 32.8017 48.3673 40.0041 48.3673V47.0918C32.385 47.0918 25.6333 50.7525 21.3944 56.4073L22.4148 57.1726ZM57.6061 57.2024C57.8187 57.483 58.2184 57.5425 58.499 57.3342C58.7796 57.1258 58.8391 56.7219 58.6308 56.4413L57.6104 57.2024H57.6061ZM21.3944 56.4073C21.1818 56.6879 21.2413 57.0876 21.5219 57.3002C21.8025 57.5128 22.2022 57.4532 22.4148 57.1726L21.3944 56.4073Z" fill="#C7D6C1"></path><path d="M39.9955 35.1361C50.425 35.1361 59.6979 40.0596 65.6205 47.7084L66.6282 46.9261C60.476 38.9796 50.8374 33.8606 39.9955 33.8606V35.1361ZM14.3578 47.7254C20.2889 40.0681 29.5704 35.1361 39.9955 35.1361V33.8606C29.1537 33.8606 19.5108 38.9881 13.3501 46.9431L14.3578 47.7254ZM65.6205 47.7084C65.8374 47.9847 66.237 48.0357 66.5134 47.8232C66.7898 47.6063 66.8408 47.2067 66.6282 46.9303L65.6205 47.7126V47.7084ZM13.3501 46.9431C13.1333 47.2194 13.1843 47.6233 13.4649 47.8359C13.7413 48.0528 14.1452 48.0017 14.3578 47.7211L13.3501 46.9388V46.9431Z" fill="#C7D6C1"></path><path d="M39.9958 23.1462C52.6446 23.1462 64.1242 28.125 72.5978 36.2245L73.4779 35.3018C64.7747 26.9855 52.9847 21.8707 39.9958 21.8707V23.1462ZM7.39371 36.2245C15.8674 28.125 27.3469 23.1462 39.9958 23.1462V21.8707C27.0068 21.8707 15.2168 26.9855 6.5136 35.3018L7.39371 36.2245ZM72.5935 36.2245C72.8486 36.4668 73.2526 36.4583 73.4949 36.2032C73.7373 35.9481 73.7288 35.5442 73.4736 35.3018L72.5935 36.2245ZM6.50935 35.3018C6.25425 35.5442 6.24575 35.9481 6.4881 36.2032C6.73044 36.4583 7.13435 36.4668 7.38945 36.2245L6.50935 35.3018Z" fill="#C7D6C1"></path></svg> 